<svg xmlns="http://www.w3.org/2000/svg" viewBox="0 0 820 480" font-family="-apple-system, Segoe UI, Roboto, sans-serif">
<text x="70" y="34" font-size="20" font-weight="700" fill="#334155">Output length: default Claude vs Say Less</text>
<text x="70" y="56" font-size="13" fill="#64748b">Words per answer, 6 prompts, one run each. ~58% fewer words overall (846 vs 2,016).</text>
<line x1="70" y1="390.0" x2="800" y2="390.0" stroke="#e2e8f0" stroke-width="1"/>
<text x="62" y="394.0" font-size="11" fill="#94a3b8" text-anchor="end">0</text>
<line x1="70" y1="312.5" x2="800" y2="312.5" stroke="#e2e8f0" stroke-width="1"/>
<text x="62" y="316.5" font-size="11" fill="#94a3b8" text-anchor="end">160</text>
<line x1="70" y1="235.0" x2="800" y2="235.0" stroke="#e2e8f0" stroke-width="1"/>
<text x="62" y="239.0" font-size="11" fill="#94a3b8" text-anchor="end">320</text>
<line x1="70" y1="157.5" x2="800" y2="157.5" stroke="#e2e8f0" stroke-width="1"/>
<text x="62" y="161.5" font-size="11" fill="#94a3b8" text-anchor="end">480</text>
<line x1="70" y1="80.0" x2="800" y2="80.0" stroke="#e2e8f0" stroke-width="1"/>
<text x="62" y="84.0" font-size="11" fill="#94a3b8" text-anchor="end">640</text>
<rect x="86.8" y="370.1" width="40" height="19.9" fill="#94a3b8" rx="3"/>
<rect x="134.8" y="389.5" width="40" height="0.5" fill="#10b981" rx="3"/>
<text x="106.8" y="364.1" font-size="11" fill="#334155" text-anchor="middle">41</text>
<text x="154.8" y="383.5" font-size="11" font-weight="700" fill="#10b981" text-anchor="middle">1</text>
<text x="130.8" y="408.0" font-size="11.5" fill="#334155" text-anchor="middle">PG port</text>
<rect x="208.5" y="271.3" width="40" height="118.7" fill="#94a3b8" rx="3"/>
<rect x="256.5" y="346.4" width="40" height="43.6" fill="#10b981" rx="3"/>
<text x="228.5" y="265.3" font-size="11" fill="#334155" text-anchor="middle">245</text>
<text x="276.5" y="340.4" font-size="11" font-weight="700" fill="#10b981" text-anchor="middle">90</text>
<text x="252.5" y="408.0" font-size="11.5" fill="#334155" text-anchor="middle">TCP vs UDP</text>
<rect x="330.2" y="230.2" width="40" height="159.8" fill="#94a3b8" rx="3"/>
<rect x="378.2" y="329.5" width="40" height="60.5" fill="#10b981" rx="3"/>
<text x="350.2" y="224.2" font-size="11" fill="#334155" text-anchor="middle">330</text>
<text x="398.2" y="323.5" font-size="11" font-weight="700" fill="#10b981" text-anchor="middle">125</text>
<text x="374.2" y="408.0" font-size="11.5" fill="#334155" text-anchor="middle">PG vs SQLite</text>
<rect x="451.8" y="181.7" width="40" height="208.3" fill="#94a3b8" rx="3"/>
<rect x="499.8" y="293.1" width="40" height="96.9" fill="#10b981" rx="3"/>
<text x="471.8" y="175.7" font-size="11" fill="#334155" text-anchor="middle">430</text>
<text x="519.8" y="287.1" font-size="11" font-weight="700" fill="#10b981" text-anchor="middle">200</text>
<text x="495.8" y="408.0" font-size="11.5" fill="#334155" text-anchor="middle">Event sourcing</text>
<rect x="573.5" y="99.4" width="40" height="290.6" fill="#94a3b8" rx="3"/>
<rect x="621.5" y="264.1" width="40" height="125.9" fill="#10b981" rx="3"/>
<text x="593.5" y="93.4" font-size="11" fill="#334155" text-anchor="middle">600</text>
<text x="641.5" y="258.1" font-size="11" font-weight="700" fill="#10b981" text-anchor="middle">260</text>
<text x="617.5" y="408.0" font-size="11.5" fill="#334155" text-anchor="middle">Rate limiting</text>
<rect x="695.2" y="210.8" width="40" height="179.2" fill="#94a3b8" rx="3"/>
<rect x="743.2" y="307.7" width="40" height="82.3" fill="#10b981" rx="3"/>
<text x="715.2" y="204.8" font-size="11" fill="#334155" text-anchor="middle">370</text>
<text x="763.2" y="301.7" font-size="11" font-weight="700" fill="#10b981" text-anchor="middle">170</text>
<text x="739.2" y="408.0" font-size="11.5" fill="#334155" text-anchor="middle">Rust vs Go</text>
<line x1="70" y1="390.0" x2="800" y2="390.0" stroke="#334155" stroke-width="1.5"/>
<rect x="70" y="444" width="13" height="13" fill="#94a3b8" rx="2"/>
<text x="89" y="455" font-size="12.5" fill="#334155">Default Claude</text>
<rect x="220" y="444" width="13" height="13" fill="#10b981" rx="2"/>
<text x="239" y="455" font-size="12.5" fill="#334155">Say Less</text>
</svg>